<svg xmlns="http://www.w3.org/2000/svg" viewBox="0 0 256 256">
  <defs>
    <radialGradient id="glow" cx="50%" cy="50%" r="50%">
      <stop offset="0%" style="stop-color:#60a5fa;stop-opacity:0.4"/>
      <stop offset="100%" style="stop-color:#60a5fa;stop-opacity:0"/>
    </radialGradient>
  </defs>
  <circle cx="128" cy="128" r="100" fill="url(#glow)"/>
  <path d="M128 60c-8 0-15 3-20 8-6-4-13-6-21-6-20 0-36 16-36 36 0 8 3 15 7 21-4 5-7 12-7 20 0 20 16 36 36 36 8 0 15-3 21-7 5 4 12 7 20 7 8 0 15-3 20-7 6 4 13 7 21 7 20 0 36-16 36-36 0-8-3-15-7-20 4-6 7-13 7-21 0-20-16-36-36-36-8 0-15 2-21 6-5-5-12-8-20-8z" fill="none" stroke="#94a3b8" stroke-width="8" stroke-linecap="round" stroke-linejoin="round"/>
  <path d="M128 98v30m0 0h-20m20 0h20" stroke="#3b82f6" stroke-width="6" stroke-linecap="round"/>
  <circle cx="95" cy="105" r="4" fill="#60a5fa"/>
  <circle cx="161" cy="105" r="4" fill="#60a5fa"/>
  <circle cx="110" cy="150" r="4" fill="#60a5fa"/>
  <circle cx="146" cy="150" r="4" fill="#60a5fa"/>
</svg>